<svg xmlns="http://www.w3.org/2000/svg" viewBox="0 0 860 372" width="100%" height="auto" role="img" aria-label="D1 每日工单量（堆叠：高优先级 / 其他）" font-family='"TsangerJinKai02", "Kami Serif", Charter, Georgia, "Source Han Serif SC", "Noto Serif CJK SC", "Noto Serif SC", "Songti SC", "STSong", serif'><rect width="860" height="372" fill="#faf9f5"/><text x="24" y="20" font-size="10" letter-spacing="2.4" fill="#6b6a64" font-family='"JetBrains Mono", "Kami Mono", "SF Mono", Consolas, "Kami Serif", "Noto Serif SC", monospace'>工单趋势分析 · kami</text><text x="24" y="42" font-size="16" font-weight="500" fill="#141413">D1 每日工单量（堆叠：高优先级 / 其他）</text><text x="24" y="60" font-size="11" fill="#504e49">平均 4.55 条/天；峰值 2024-06-10（6 条）</text><line x1="56" y1="284.0" x2="836" y2="284.0" stroke="#e8e7e1" stroke-width="1"/><text x="46" y="288.0" font-size="11" fill="#6b6a64" text-anchor="end">0</text><line x1="56" y1="254.9" x2="836" y2="254.9" stroke="#e8e7e1" stroke-width="1"/><text x="46" y="258.9" font-size="11" fill="#6b6a64" text-anchor="end">1</text><line x1="56" y1="225.7" x2="836" y2="225.7" stroke="#e8e7e1" stroke-width="1"/><text x="46" y="229.7" font-size="11" fill="#6b6a64" text-anchor="end">2</text><line x1="56" y1="196.6" x2="836" y2="196.6" stroke="#e8e7e1" stroke-width="1"/><text x="46" y="200.6" font-size="11" fill="#6b6a64" text-anchor="end">3</text><line x1="56" y1="167.4" x2="836" y2="167.4" stroke="#e8e7e1" stroke-width="1"/><text x="46" y="171.4" font-size="11" fill="#6b6a64" text-anchor="end">4</text><line x1="56" y1="138.3" x2="836" y2="138.3" stroke="#e8e7e1" stroke-width="1"/><text x="46" y="142.3" font-size="11" fill="#6b6a64" text-anchor="end">5</text><line x1="56" y1="109.1" x2="836" y2="109.1" stroke="#e8e7e1" stroke-width="1"/><text x="46" y="113.1" font-size="11" fill="#6b6a64" text-anchor="end">6</text><line x1="56" y1="80.0" x2="836" y2="80.0" stroke="#e8e7e1" stroke-width="1"/><text x="46" y="84.0" font-size="11" fill="#6b6a64" text-anchor="end">7</text><line x1="56" y1="151.4" x2="836" y2="151.4" stroke="#504e49" stroke-width="1.2" stroke-dasharray="6 4"/><text x="62" y="145.4" font-size="11" fill="#504e49" text-anchor="start">日均 4.55</text><rect x="72.0" y="254.9" width="39.0" height="29.1" fill="#1B365D" rx="2"/><rect x="72.0" y="196.6" width="39.0" height="58.3" fill="#d4d3cd" rx="2"/><rect x="82.5" y="179.6" width="18" height="14" fill="#faf9f5"/><text x="91.5" y="190.6" font-size="11" fill="#141413" text-anchor="middle">3</text><text x="91.5" y="306" font-size="11" fill="#6b6a64" text-anchor="middle">06-01</text><rect x="142.9" y="225.7" width="39.0" height="58.3" fill="#1B365D" rx="2"/><rect x="142.9" y="196.6" width="39.0" height="29.1" fill="#d4d3cd" rx="2"/><rect x="153.4" y="179.6" width="18" height="14" fill="#faf9f5"/><text x="162.4" y="190.6" font-size="11" fill="#141413" text-anchor="middle">3</text><text x="162.4" y="306" font-size="11" fill="#6b6a64" text-anchor="middle">06-02</text><rect x="213.8" y="196.6" width="39.0" height="87.4" fill="#1B365D" rx="2"/><rect x="213.8" y="167.4" width="39.0" height="29.1" fill="#d4d3cd" rx="2"/><rect x="224.3" y="150.4" width="18" height="14" fill="#faf9f5"/><text x="233.3" y="161.4" font-size="11" fill="#141413" text-anchor="middle">4</text><text x="233.3" y="306" font-size="11" fill="#6b6a64" text-anchor="middle">06-03</text><rect x="284.7" y="254.9" width="39.0" height="29.1" fill="#1B365D" rx="2"/><rect x="284.7" y="138.3" width="39.0" height="116.6" fill="#d4d3cd" rx="2"/><rect x="295.2" y="121.3" width="18" height="14" fill="#faf9f5"/><text x="304.2" y="132.3" font-size="11" fill="#141413" text-anchor="middle">5</text><text x="304.2" y="306" font-size="11" fill="#6b6a64" text-anchor="middle">06-04</text><rect x="355.6" y="225.7" width="39.0" height="58.3" fill="#1B365D" rx="2"/><rect x="355.6" y="167.4" width="39.0" height="58.3" fill="#d4d3cd" rx="2"/><rect x="366.1" y="150.4" width="18" height="14" fill="#faf9f5"/><text x="375.1" y="161.4" font-size="11" fill="#141413" text-anchor="middle">4</text><text x="375.1" y="306" font-size="11" fill="#6b6a64" text-anchor="middle">06-05</text><rect x="426.5" y="196.6" width="39.0" height="87.4" fill="#1B365D" rx="2"/><rect x="426.5" y="138.3" width="39.0" height="58.3" fill="#d4d3cd" rx="2"/><rect x="437.0" y="121.3" width="18" height="14" fill="#faf9f5"/><text x="446.0" y="132.3" font-size="11" fill="#141413" text-anchor="middle">5</text><text x="446.0" y="306" font-size="11" fill="#6b6a64" text-anchor="middle">06-06</text><rect x="497.4" y="167.4" width="39.0" height="116.6" fill="#1B365D" rx="2"/><rect x="497.4" y="138.3" width="39.0" height="29.1" fill="#d4d3cd" rx="2"/><rect x="507.9" y="121.3" width="18" height="14" fill="#faf9f5"/><text x="516.9" y="132.3" font-size="11" fill="#141413" text-anchor="middle">5</text><text x="516.9" y="306" font-size="11" fill="#6b6a64" text-anchor="middle">06-07</text><rect x="568.3" y="167.4" width="39.0" height="116.6" fill="#1B365D" rx="2"/><rect x="568.3" y="138.3" width="39.0" height="29.1" fill="#d4d3cd" rx="2"/><rect x="578.8" y="121.3" width="18" height="14" fill="#faf9f5"/><text x="587.8" y="132.3" font-size="11" fill="#141413" text-anchor="middle">5</text><text x="587.8" y="306" font-size="11" fill="#6b6a64" text-anchor="middle">06-08</text><rect x="639.2" y="167.4" width="39.0" height="116.6" fill="#1B365D" rx="2"/><rect x="639.2" y="138.3" width="39.0" height="29.1" fill="#d4d3cd" rx="2"/><rect x="649.7" y="121.3" width="18" height="14" fill="#faf9f5"/><text x="658.7" y="132.3" font-size="11" fill="#141413" text-anchor="middle">5</text><text x="658.7" y="306" font-size="11" fill="#6b6a64" text-anchor="middle">06-09</text><rect x="710.1" y="196.6" width="39.0" height="87.4" fill="#1B365D" rx="2"/><rect x="710.1" y="109.1" width="39.0" height="87.4" fill="#d4d3cd" rx="2"/><rect x="720.6" y="92.1" width="18" height="14" fill="#faf9f5"/><text x="729.6" y="103.1" font-size="11" fill="#141413" text-anchor="middle">6</text><text x="729.6" y="306" font-size="11" fill="#6b6a64" text-anchor="middle">06-10</text><rect x="781.0" y="167.4" width="39.0" height="116.6" fill="#1B365D" rx="2"/><rect x="781.0" y="138.3" width="39.0" height="29.1" fill="#d4d3cd" rx="2"/><rect x="791.5" y="121.3" width="18" height="14" fill="#faf9f5"/><text x="800.5" y="132.3" font-size="11" fill="#141413" text-anchor="middle">5</text><text x="800.5" y="306" font-size="11" fill="#6b6a64" text-anchor="middle">06-11</text><line x1="56" y1="326" x2="836" y2="326" stroke="#e8e7e1" stroke-width="0.8"/><rect x="56" y="334" width="10" height="10" fill="#1B365D" rx="2"/><text x="72" y="343" font-size="11" fill="#6b6a64">高优先级</text><rect x="146" y="334" width="10" height="10" fill="#d4d3cd" rx="2"/><text x="162" y="343" font-size="11" fill="#6b6a64">其他优先级</text></svg>